HIERARCHY
ROOT root
{
	OFFSET	0	13.1	24.9
	CHANNELS 6  Xposition Yposition Zposition Xrotation Yrotation Zrotation
	JOINT spine_1
	{
		OFFSET	0	9.99999	0
		CHANNELS 3  Xrotation Yrotation Zrotation
		JOINT spine_2
		{
			OFFSET	0	112	-10
			CHANNELS 3  Xrotation Yrotation Zrotation
			JOINT spine_3
			{
				OFFSET	0	206.5	19.3
				CHANNELS 3  Xrotation Yrotation Zrotation
				JOINT spine_4
				{
					OFFSET	0	110.4	14.6
					CHANNELS 3  Xrotation Yrotation Zrotation
					JOINT neck_1
					{
						OFFSET	0	71.8	-50.3
						CHANNELS 3  Xrotation Yrotation Zrotation
						JOINT neck_2
						{
							OFFSET	0	86.2	-25.8
							CHANNELS 3  Xrotation Yrotation Zrotation
							JOINT head_ee
							{
								OFFSET	0	179.8	-8.7
								CHANNELS 3  Xrotation Yrotation Zrotation
								End Site
								{
									OFFSET	1	0	0
								}
							}
						}
					}
					JOINT left_clavicle
					{
						OFFSET	-43.2	22.4	-70.8
						CHANNELS 3  Xrotation Yrotation Zrotation
						JOINT left_shoulder
						{
							OFFSET	-93.9	-5.79999	48.7
							CHANNELS 3  Xrotation Yrotation Zrotation
							JOINT left_elbow
							{
								OFFSET	-291.4	-30.8	15.2
								CHANNELS 3  Xrotation Yrotation Zrotation
								JOINT left_lowarm_twist
								{
									OFFSET	-110.7	-3.89999	13.6
									CHANNELS 3  Xrotation Yrotation Zrotation
									JOINT left_hand
									{
										OFFSET	-110.7	-3.89999	13.6
										CHANNELS 3  Xrotation Yrotation Zrotation
										JOINT left_ee
										{
											OFFSET	-80.8	-5.10001	12.1
											CHANNELS 3  Xrotation Yrotation Zrotation
											End Site
											{
												OFFSET	1	0	0
											}
										}
									}
								}
							}
						}
					}
					JOINT right_clavicle
					{
						OFFSET	43.2	22.4	-70.8
						CHANNELS 3  Xrotation Yrotation Zrotation
						JOINT right_shoulder
						{
							OFFSET	93.9	-5.79999	48.7
							CHANNELS 3  Xrotation Yrotation Zrotation
							JOINT right_elbow
							{
								OFFSET	291.4	-30.8	15.2
								CHANNELS 3  Xrotation Yrotation Zrotation
								JOINT right_lowarm_twist
								{
									OFFSET	110.7	-3.89999	13.6
									CHANNELS 3  Xrotation Yrotation Zrotation
									JOINT right_hand
									{
										OFFSET	110.7	-3.89999	13.6
										CHANNELS 3  Xrotation Yrotation Zrotation
										JOINT right_ee
										{
											OFFSET	80.8	-5.10001	12.1
											CHANNELS 3  Xrotation Yrotation Zrotation
											End Site
											{
												OFFSET	1	0	0
											}
										}
									}
								}
							}
						}
					}
				}
			}
		}
	}
	JOINT left_hip
	{
		OFFSET	-82.8	-127.5	0.300001
		CHANNELS 3  Xrotation Yrotation Zrotation
		JOINT left_knee
		{
			OFFSET	-28.2	-396.7	2.2
			CHANNELS 3  Xrotation Yrotation Zrotation
			JOINT left_ankle
			{
				OFFSET	-11.7	-411.3	35.4
				CHANNELS 3  Xrotation Yrotation Zrotation
				JOINT left_toes
				{
					OFFSET	0	-60	-88.6
					CHANNELS 3  Xrotation Yrotation Zrotation
					JOINT left_foot_ee
					{
						OFFSET	-22.5	-16.5	-42.2
						CHANNELS 3  Xrotation Yrotation Zrotation
						End Site
						{
							OFFSET	1	0	0
						}
					}
				}
			}
		}
	}
	JOINT right_hip
	{
		OFFSET	82.8	-127.5	0.300001
		CHANNELS 3  Xrotation Yrotation Zrotation
		JOINT right_knee
		{
			OFFSET	28.2	-396.7	2.2
			CHANNELS 3  Xrotation Yrotation Zrotation
			JOINT right_ankle
			{
				OFFSET	11.7	-411.3	35.4
				CHANNELS 3  Xrotation Yrotation Zrotation
				JOINT right_toes
				{
					OFFSET	0	-60	-88.6
					CHANNELS 3  Xrotation Yrotation Zrotation
					JOINT right_foot_ee
					{
						OFFSET	22.5	-16.5	-42.2
						CHANNELS 3  Xrotation Yrotation Zrotation
						End Site
						{
							OFFSET	1	0	0
						}
					}
				}
			}
		}
	}
}
MOTION
Frames: 5
Frame Time: 0.02
341.826 630.248 -1614.72 -118.968 -89.3744 -116.646 1.1993 0.0780331 -1.16827 1.20004 0.15221 -1.16094 1.197 0.369741 -1.11097 1.19533 0.189656 -1.15542 -16.8768 -10.2026 -5.24078 -17.0967 -16.661 -8.65182 -0.0 0.0 -0.0 11.7684 -15.8497 23.6367 -10.9382 6.03033 61.2616 0.957899 -25.3846 0.215742 76.5104 -3.44241 -8.40095 3.53855 -1.07975 23.9556 -0.0 0.0 -0.0 6.22988 6.40624 -11.9151 -15.8684 2.95045 -64.2588 1.14736 29.6115 -0.303277 -43.2197 3.2999 -4.28219 2.53506 28.3977 -4.17458 0.0 0.0 0.0 12.2639 3.20767 -0.597642 -22.8557 0.250802 3.47522 36.8944 -32.5024 -5.78545 2.23044 -0.0 -0.0 -0.0 0.0 -0.0 4.491 -43.6077 3.85392 -26.8533 -0.151672 -4.08057 39.4631 9.30112 4.96427 21.3454 -0.0 -0.0 0.0 0.0 0.0 
318.692 640.302 -1624.86 -111.212 -85.3083 -112.591 0.151998 -0.00127126 -0.296179 0.152047 0.0175779 -0.295659 0.151973 0.0785694 -0.28557 0.151861 0.032483 -0.294395 -6.15375 -9.10588 -2.35975 -6.12565 -15.1238 -4.10665 -0.0 0.0 -0.0 12.2333 -25.7071 23.9474 -4.5589 -5.1559 59.7136 0.632616 -17.4 0.0968048 27.5537 0.135462 -3.48343 7.22362 -15.2833 46.4481 -0.0 0.0 -0.0 7.20096 -6.36337 -13.8814 -4.77602 3.06727 -59.4674 1.22754 31.3019 -0.343924 36.3002 0.170941 4.55733 1.86833 -8.65445 -15.8747 0.0 0.0 0.0 12.8795 9.94069 3.48041 -17.4106 0.317475 2.6427 -8.08764 29.3125 1.28507 -35.9669 0.0 0.0 -0.0 0.0 -0.0 30.6605 -32.7994 16.4971 -37.5775 0.319884 -5.65614 37.5405 -27.0791 4.99302 40.1752 -0.0 -0.0 0.0 0.0 0.0 
330.538 642.181 -1628.53 -123.741 -84.3513 -125.377 0.364466 -0.125654 -0.289234 0.364506 -0.106994 -0.296643 0.36509 -0.0442485 -0.312229 0.364966 -0.0930037 -0.301323 -4.82022 -7.86365 -2.52192 -4.77619 -12.5498 -3.91088 -0.0 0.0 -0.0 12.5584 -26.9217 24.5501 -5.08473 -8.11788 59.0743 0.812094 -21.9142 0.157226 25.8064 0.176818 -3.26407 9.00334 -23.0463 56.6291 -0.0 0.0 -0.0 6.72272 -8.76016 -12.927 -7.30034 4.33473 -60.1465 1.32518 33.2815 -0.396096 34.7772 0.105837 4.37385 1.95539 -4.35274 -14.8768 0.0 0.0 0.0 11.4655 10.705 4.19372 -16.0119 0.321808 2.42814 -7.76321 30.2467 1.24075 -39.7248 0.0 0.0 -0.0 0.0 -0.0 29.6207 -28.7732 15.1031 -35.6484 0.213381 -5.37953 42.2068 -22.9543 5.30864 40.1457 -0.0 -0.0 0.0 0.0 0.0 
338.682 646.143 -1629.62 -131.667 -83.9454 -133.285 0.312806 0.0590032 -0.402372 0.312892 0.0844874 -0.397802 0.312321 0.164186 -0.372059 0.312143 0.103366 -0.393319 -2.86614 -5.60028 -2.61027 -2.82857 -8.13161 -3.51794 -0.0 0.0 -0.0 12.8 -27.009 25.0943 -2.93563 -5.50702 60.2273 0.875937 -23.4564 0.181851 19.0009 0.273674 -2.40066 8.19659 -24.0358 47.6154 -0.0 0.0 -0.0 6.82661 -9.71127 -13.0819 -10.7436 5.67274 -59.9318 1.41431 35.0135 -0.446135 39.2819 0.31244 4.91133 0.809614 -6.26379 -7.92749 0.0 0.0 0.0 9.98215 10.6183 4.56891 -14.8337 0.321393 2.24738 -8.03245 30.604 1.28748 -40.1222 0.0 0.0 -0.0 0.0 -0.0 27.6297 -22.7472 12.8112 -28.9385 -0.0832564 -4.39326 41.8717 -14.6976 5.09216 40.1087 -0.0 -0.0 0.0 0.0 0.0 
344.785 645.496 -1624.24 -127.148 -84.1864 -128.636 0.358043 -0.0793011 -0.431564 0.358145 -0.0516791 -0.435736 0.358586 0.0383219 -0.437113 0.35832 -0.0311922 -0.437679 -2.45065 -4.65051 -1.61492 -2.42496 -7.15277 -2.32837 -0.0 0.0 -0.0 12.7224 -28.4515 24.7301 -0.911782 -8.49281 58.2733 0.910363 -24.2735 0.19578 13.8925 0.278723 -1.74842 8.92735 -24.1467 54.4884 -0.0 0.0 -0.0 6.27332 -12.2249 -12.0207 -15.4684 5.18404 -61.888 1.5117 36.8253 -0.503273 45.4612 0.663364 5.61926 1.3162 2.58215 -7.7727 0.0 0.0 0.0 9.84922 10.4417 3.59791 -16.1899 0.321548 2.45545 -6.09338 29.5544 0.966866 -40.1741 0.0 0.0 -0.0 0.0 -0.0 29.42 -18.9047 12.7332 -26.8635 -0.151364 -4.0821 40.7293 -2.80165 4.92351 40.1223 -0.0 -0.0 0.0 0.0 0.0 
